<svg id="customers" xmlns="http://www.w3.org/2000/svg" width="30" height="30" viewBox="0 0 30 30">
  <g id="Group_1" data-name="Group 1">
    <path id="Path_1" data-name="Path 1" d="M15,0A15,15,0,1,0,30,15,14.98,14.98,0,0,0,15,0Zm0,28.1A13.018,13.018,0,0,1,1.9,15,13.018,13.018,0,0,1,15,1.9,13.018,13.018,0,0,1,28.1,15,13.018,13.018,0,0,1,15,28.1Z"/>
    <path id="Path_2" data-name="Path 2" d="M23.4,15H6.6a.865.865,0,0,0-.9,1,9.36,9.36,0,0,0,18.6,0A.919.919,0,0,0,23.4,15ZM15,22.5a7.619,7.619,0,0,1-7.3-5.6H22.2A7.413,7.413,0,0,1,15,22.5Z"/>
    <circle id="Ellipse_1" data-name="Ellipse 1" cx="1.8" cy="1.8" r="1.8" transform="translate(8 9.1)"/>
    <circle id="Ellipse_2" data-name="Ellipse 2" cx="1.8" cy="1.8" r="1.8" transform="translate(18.4 9.1)"/>
  </g>
</svg>
