<svg xmlns="http://www.w3.org/2000/svg" width="22.915" height="30" viewBox="0 0 22.915 30">
  <g id="employees" transform="translate(-5.65 0.45)">
    <path id="Path_3" data-name="Path 3" d="M5.694,20.517l-.044,8.2a.836.836,0,0,0,.83.83H27.735a.836.836,0,0,0,.83-.83V20.749l-.011-.188-.022-.033a6.226,6.226,0,0,0-3.554-5.613,11.165,11.165,0,0,0-2.944-.863l-.166-.022-.343.11-.189.122a5.412,5.412,0,0,1-1.472,1.008,6.19,6.19,0,0,1-5.513-.012,5.384,5.384,0,0,1-1.439-1l-.133-.122-.432-.132-.166.022C8.052,14.738,5.927,16.853,5.694,20.517Zm16.24-6.465h.044l-.2.022A.581.581,0,0,1,21.934,14.052Zm-3.465,3.421L17.108,19.93l-1.362-2.457A7.507,7.507,0,0,0,18.469,17.473Zm-6.387-1.7a6.964,6.964,0,0,0,1.3.874l3,5.4a.858.858,0,0,0,1.45,0l3-5.4a7.226,7.226,0,0,0,1.306-.874,9.442,9.442,0,0,1,2.126.653c1.8.874,2.646,2.391,2.646,4.771v6.7H18.823v-.055a1.715,1.715,0,1,0-3.431,0v.055H7.311v-6.7C7.311,18.048,8.739,16.41,12.082,15.768Z"/>
    <circle id="Ellipse_3" data-name="Ellipse 3" cx="1.716" cy="1.716" r="1.716" transform="translate(15.392 22.576)"/>
    <path id="Path_4" data-name="Path 4" d="M25.023,7.465a7.916,7.916,0,1,0-7.915,7.915A7.928,7.928,0,0,0,25.023,7.465Zm-14.17,0a6.254,6.254,0,1,1,6.255,6.255A6.255,6.255,0,0,1,10.853,7.465Z"/>
  </g>
</svg>
