<svg xmlns="http://www.w3.org/2000/svg" width="47.471" height="33.91" viewBox="0 0 47.471 33.91">
  <g id="features-icon01" transform="translate(2724 4900)">
    <rect id="Rectangle_2" data-name="Rectangle 2" width="28.919" height="20.785" transform="translate(-2721.953 -4899.053)" fill="#f23e00"/>
    <g id="features-icon01-2" data-name="features-icon01" transform="translate(-2724 -4900)">
      <path id="Path_1" data-name="Path 1" d="M-23.673-19.333a5.113,5.113,0,0,0-5.087,5.086V6.1a5.114,5.114,0,0,0,5.087,5.087h2.013a5.1,5.1,0,0,0,4.769,3.393,5.1,5.1,0,0,0,4.768-3.393H3.77a5.049,5.049,0,0,0,9.537,0h1.165a4.267,4.267,0,0,0,4.238-4.239V.164a1.7,1.7,0,0,0-.61-1.3L13.286-5.151l-3.231-6.464a1.7,1.7,0,0,0-1.516-.937H3.454v-1.7a5.113,5.113,0,0,0-5.087-5.086Zm0,3.391h22.04a1.656,1.656,0,0,1,1.211.484,1.656,1.656,0,0,1,.485,1.211V-.684H-25.369V-14.247a1.656,1.656,0,0,1,.485-1.211A1.656,1.656,0,0,1-23.673-15.942ZM3.454-9.159h4.04l2.543,5.086H6.843A1.7,1.7,0,0,0,5.125-2.4,1.7,1.7,0,0,0,6.8-.682H13.35L15.32.96V6.945a.811.811,0,0,1-.847.848H13.307a5.049,5.049,0,0,0-9.537,0H3.454ZM-25.367,2.709H.062V7.793H-12.124A5.1,5.1,0,0,0-16.892,4.4a5.1,5.1,0,0,0-4.767,3.391h-2.013a1.656,1.656,0,0,1-1.211-.484A1.656,1.656,0,0,1-25.367,6.1Zm8.475,5.084a1.67,1.67,0,0,1,1.206.489A1.67,1.67,0,0,1-15.2,9.488a1.671,1.671,0,0,1-.489,1.206,1.67,1.67,0,0,1-1.206.489,1.671,1.671,0,0,1-1.207-.489,1.671,1.671,0,0,1-.489-1.207A1.671,1.671,0,0,1-18.1,8.282a1.67,1.67,0,0,1,1.206-.489Zm25.43,0a1.7,1.7,0,1,1-1.7,1.695,1.67,1.67,0,0,1,1.7-1.695Z" transform="translate(28.76 19.333)" fill="#232323"/>
    </g>
  </g>
</svg>
