<svg xmlns="http://www.w3.org/2000/svg" width="44.164" height="48.695" viewBox="0 0 44.164 48.695">
  <g id="features-icon02" transform="translate(-5.77 -48.757)">
    <path id="Path_2" data-name="Path 2" d="M5.77,73.265a21.968,21.968,0,0,1,9.986-18.473.577.577,0,0,1,.634,0L19.63,56.9a.364.364,0,0,1-.035.629,17.775,17.775,0,0,0,7.709,33.5V89.471a.669.669,0,0,1,1.049-.559l5.736,3.733a.669.669,0,0,1,0,1.12L28.353,97.5a.669.669,0,0,1-1.034-.559V95.352A22.163,22.163,0,0,1,5.77,73.265Z" transform="translate(0 -0.155)" fill="#232323"/>
    <path id="Path_3" data-name="Path 3" d="M36.515,88.847a.365.365,0,0,0-.16.491.36.36,0,0,0,.124.138l3.24,2.108a.582.582,0,0,0,.635,0A22.089,22.089,0,0,0,28.815,51.02V49.434a.669.669,0,0,0-1.048-.559L22.05,52.608a.669.669,0,0,0,0,1.12l5.717,3.733A.669.669,0,0,0,28.8,56.9V55.34a17.775,17.775,0,0,1,7.713,33.507Z" transform="translate(-0.414)" fill="#232323"/>
    <path id="Path_4" data-name="Path 4" d="M28.023,86.016a1.5,1.5,0,0,0,1.5-1.5V82.865c3.55-.619,5.493-2.96,5.493-5.707s-1.5-4.494-5.152-5.772c-2.622-1-3.7-1.638-3.7-2.651,0-.864.649-1.728,2.651-1.728a9.493,9.493,0,0,1,2.731.389,1.8,1.8,0,1,0,.987-3.46h0a13.214,13.214,0,0,0-2.815-.4V62.345a1.513,1.513,0,0,0-3.026,0v1.418c-3.3.649-5.213,2.773-5.213,5.493,0,3,2.252,4.533,5.552,5.647,2.282.774,3.27,1.5,3.27,2.686s-1.2,1.913-2.961,1.913A10.4,10.4,0,0,1,24,78.916a1.76,1.76,0,0,0-2.253,1.067c-.017.047-.031.093-.044.141l-.035.145a1.787,1.787,0,0,0,1.183,2.142,14.275,14.275,0,0,0,3.685.654v1.418A1.5,1.5,0,0,0,28,86.01h.046Z" transform="translate(-0.41 -0.314)" fill="#f23e00"/>
  </g>
</svg>
