<svg xmlns="http://www.w3.org/2000/svg" width="47.121" height="41.473" viewBox="0 0 47.121 41.473">
  <g id="features-icon03" transform="translate(2351 4905.001)">
    <path id="Path_5" data-name="Path 5" d="M45.706,63.152H44.171a18.5,18.5,0,0,0-36.468,0H6.215A3.849,3.849,0,0,0,2.4,66.969v6.391a3.787,3.787,0,0,0,1.139,2.726,3.92,3.92,0,0,0,2.675,1.09H9.633a1.776,1.776,0,0,0,1.784-1.783V66.275a14.469,14.469,0,0,1,28.939,0V78.711a5.965,5.965,0,0,1-5.947,5.946H31.138a2.3,2.3,0,0,0-2.279-1.783h-5.9a2.379,2.379,0,0,0-2.379,2.378v1.635a2.379,2.379,0,0,0,2.379,2.379h6a2.437,2.437,0,0,0,2.278-1.782h3.27a8.786,8.786,0,0,0,8.77-8.77V77.127h2.428a3.829,3.829,0,0,0,2.675-1.09,3.784,3.784,0,0,0,1.14-2.727V66.969A3.849,3.849,0,0,0,45.706,63.152Z" transform="translate(-2353.4 -4952.794)" fill="#232323"/>
    <path id="person-fill" d="M3.637,21.653A1.6,1.6,0,0,1,2,20.013c0-1.638,1.638-6.551,9.826-6.551s9.827,4.915,9.827,6.551a1.6,1.6,0,0,1-1.64,1.64Zm8.188-9.827A4.913,4.913,0,1,0,6.913,6.913a4.913,4.913,0,0,0,4.913,4.913Z" transform="translate(-2339.266 -4896.09)" fill="#f23e00"/>
  </g>
</svg>
