<svg xmlns="http://www.w3.org/2000/svg" width="47.926" height="47.926" viewBox="0 0 47.926 47.926">
  <g id="features-icon04" transform="translate(-10 -40)">
    <rect id="Rectangle_7" data-name="Rectangle 7" width="5.991" height="3.994" transform="translate(21.981 75.944)" fill="#f23e00"/>
    <rect id="Rectangle_8" data-name="Rectangle 8" width="5.991" height="3.994" transform="translate(31.966 75.944)" fill="#f23e00"/>
    <path id="Path_6" data-name="Path 6" d="M53.931,53.978H29.969V49.985a2,2,0,0,0-2-2h-2v-2a5.991,5.991,0,0,0-11.981,0v2H12a2,2,0,0,0-2,2V65.959a2,2,0,0,0,2,2h2V83.931a4.006,4.006,0,0,0,3.993,3.994H53.931a4.007,4.007,0,0,0,3.994-3.994V57.972a4.007,4.007,0,0,0-3.994-3.994ZM17.987,45.991a2,2,0,1,1,3.994,0v2H17.987ZM13.994,63.963V51.981H25.976V63.963ZM53.931,83.931H17.987V67.957H53.931Zm0-21.965H29.969V57.972H53.931Z" transform="translate(0 0)" fill="#232323"/>
    <rect id="Rectangle_9" data-name="Rectangle 9" width="3.994" height="3.994" transform="translate(17.987 55.976)" fill="#f23e00"/>
  </g>
</svg>
