<svg xmlns="http://www.w3.org/2000/svg" width="30" height="28.64" viewBox="0 0 30 28.64">
  <g id="order" transform="translate(-42 -927.56)">
    <path id="Path_18" data-name="Path 18" d="M56.362,940.364v14.687c0,.383-.007.766-.007,1.149l-.59-.258-3.737-1.647L47.505,952.3l-3.9-1.723c-.536-.236-1.059-.495-1.6-.721V935.174c0-.382,0-.765.006-1.148.2.089.4.178.6.264,1.247.553,2.5,1.1,3.746,1.65q1.743.766,3.485,1.536c.345.153.69.3,1.038.456q1.957.861,3.919,1.727l1.564.689Z"/>
    <path id="Path_19" data-name="Path 19" d="M57.648,940.351l.865-.383c1.184-.523,2.374-1.044,3.558-1.567.83-.367,1.663-.731,2.493-1.1v3.8a.644.644,0,0,0,.638.638.65.65,0,0,0,.638-.638v-4.356c.224-.109.486-.218.731-.323.192-.083.38-.169.568-.252q1.953-.861,3.907-1.72a.24.24,0,0,1,.028-.013c.31-.137.639-.274.926-.408v14.135c0,.571-.006,1.145,0,1.717-.412.182-.82.364-1.232.545l-3.737,1.647q-2.26,1-4.523,1.992L58.6,955.785c-.319.141-.642.275-.961.412V941.835c0-.495.01-.989.007-1.484Z"/>
    <path id="Path_20" data-name="Path 20" d="M56.987,939.244c-.408-.179-.814-.358-1.222-.54l-3.737-1.647-4.523-1.991q-1.953-.861-3.909-1.723c-.2-.09-.4-.176-.6-.265l.006,0,.074-.028q1.872-.738,3.74-1.478l2.668-1.053c.482.2.967.4,1.449.6l3.741,1.538q2.255.928,4.509,1.854l3.913,1.609c.172.07.345.143.514.217-.37.163-.741.325-1.108.488L58.6,938.542c-.533.236-1.076.456-1.609.7Z"/>
    <path id="Path_21" data-name="Path 21" d="M71,933.084c-.077.032-.154.067-.23.1l-3.737,1.647q-.9.4-1.8.791c-.476-.194-.948-.389-1.424-.584q-1.872-.77-3.74-1.538-2.254-.929-4.51-1.854l-3.913-1.609c-.15-.06-.3-.124-.45-.188.045-.019.09-.035.135-.054l3.922-1.548,1.283-.507c.156-.061.316-.119.472-.182.46.182.923.363,1.382.545q1.872.738,3.741,1.478l4.509,1.781,3.922,1.548C70.7,932.963,70.851,933.023,71,933.084Z"/>
  </g>
</svg>
