<svg xmlns="http://www.w3.org/2000/svg" width="30" height="25.47" viewBox="0 0 30 25.47">
  <g id="payment" transform="translate(-6.715 -61.28)">
    <path id="Path_24" data-name="Path 24" d="M26.227,77.2a4.092,4.092,0,0,1-4.087-4.087v-3.53A4.092,4.092,0,0,1,26.227,65.5h1.649c.038,0,.077,0,.116,0h6.966V63.633A2.3,2.3,0,0,0,32.6,61.28H9.069a2.355,2.355,0,0,0-2.354,2.353V84.4A2.355,2.355,0,0,0,9.069,86.75H32.6A2.305,2.305,0,0,0,34.958,84.4V77.2Z"/>
    <path id="Path_25" data-name="Path 25" d="M35.987,67.229h-.005a.289.289,0,0,0-.029,0H27.992c-.013,0-.025,0-.037,0H26.227a2.355,2.355,0,0,0-2.354,2.353v3.53a2.355,2.355,0,0,0,2.354,2.354h9.76v-.005a.749.749,0,0,0,.728-.757V67.986A.75.75,0,0,0,35.987,67.229Zm-8.776,5.449a1.331,1.331,0,1,1,1.331-1.331A1.331,1.331,0,0,1,27.211,72.678Z"/>
  </g>
</svg>
