<svg xmlns="http://www.w3.org/2000/svg" width="30" height="30" viewBox="0 0 30 30">
  <g id="return" transform="translate(0 -482)">
    <path id="Path_26" data-name="Path 26" d="M12.846,486.218l2.037,1.035V482H10.02v5.253l2.034-1.034A.877.877,0,0,1,12.846,486.218Z"/>
    <path id="Path_27" data-name="Path 27" d="M24.9,492.619v-9.74a.878.878,0,0,0-.879-.879H16.641v6.683a.878.878,0,0,1-1.333.753l-2.857-1.452-2.916,1.482a.877.877,0,0,1-1.271-.783l0-6.683H.879a.878.878,0,0,0-.879.879v23.144a.878.878,0,0,0,.879.879h9.74A10.969,10.969,0,0,1,24.9,492.619Z"/>
    <path id="Path_28" data-name="Path 28" d="M27.3,496.271a9.213,9.213,0,1,0,2.7,6.515A9.186,9.186,0,0,0,27.3,496.271Zm-2.81,9.4a3.389,3.389,0,0,1-2.4,1h-4.1a.879.879,0,1,1,0-1.758h4.1a1.67,1.67,0,0,0,0-3.34H19.641l.522.521a.876.876,0,1,1-1.235,1.243l-2.02-2.015a.877.877,0,0,1,0-1.24l2.015-2.019a.876.876,0,1,1,1.243,1.236l-.516.517H22.09a3.437,3.437,0,0,1,2.4,5.858Z"/>
  </g>
</svg>
