<svg xmlns="http://www.w3.org/2000/svg" width="30" height="24.012" viewBox="0 0 30 24.012">
  <g id="shipping" transform="translate(-2.37 -6.508)">
    <path id="Path_22" data-name="Path 22" d="M31.765,22.612a.608.608,0,0,0-.6.6V25.7H9.337V7.113a.608.608,0,0,0-.6-.605H2.975a.608.608,0,0,0-.605.605.6.6,0,0,0,.605.6H8.138v18.6a.608.608,0,0,0,.6.605h1.987a2.25,2.25,0,0,0-.432,1.324,2.284,2.284,0,1,0,4.136-1.324H26.084a2.25,2.25,0,0,0-.432,1.324,2.284,2.284,0,1,0,4.136-1.324h1.977a.608.608,0,0,0,.6-.605v-3.09A.608.608,0,0,0,31.765,22.612Z"/>
    <path id="Path_23" data-name="Path 23" d="M23.128,8.627H11.612a.364.364,0,0,0-.365.364v14.4a.364.364,0,0,0,.365.364H28.886a.364.364,0,0,0,.365-.364V8.991a.364.364,0,0,0-.365-.364Zm-.355,5.556-.278-.556a.377.377,0,0,0-.643,0L21.209,14.9l-.643-1.276a.377.377,0,0,0-.643,0L19.289,14.9l-.643-1.276a.377.377,0,0,0-.643,0l-.278.556V9.346h5.038v4.837Z"/>
  </g>
</svg>
