<svg xmlns="http://www.w3.org/2000/svg" width="30" height="30" viewBox="0 0 30 30">
  <g id="works" transform="translate(-9.785 -60.216)">
    <path id="Path_5" data-name="Path 5" d="M24.785,60.216a15,15,0,1,0,15,15A15.017,15.017,0,0,0,24.785,60.216Zm0,27.776A12.776,12.776,0,1,1,37.561,75.216,12.792,12.792,0,0,1,24.785,87.992Z"/>
    <path id="Path_6" data-name="Path 6" d="M24.785,66.113a.736.736,0,0,0,.736-.736V63.9a.736.736,0,1,0-1.472,0v1.472A.735.735,0,0,0,24.785,66.113Z"/>
    <path id="Path_7" data-name="Path 7" d="M24.785,84.151a.735.735,0,0,0-.736.736V86.36a.736.736,0,1,0,1.472,0V84.887A.737.737,0,0,0,24.785,84.151Z"/>
    <path id="Path_8" data-name="Path 8" d="M36.013,74.4H34.54a.736.736,0,1,0,0,1.473h1.473a.737.737,0,0,0,0-1.473Z"/>
    <path id="Path_9" data-name="Path 9" d="M15.029,74.4H13.557a.736.736,0,0,0,0,1.473h1.472a.736.736,0,1,0,0-1.473Z"/>
    <path id="Path_10" data-name="Path 10" d="M32.525,80.617,26.313,75.79a1.674,1.674,0,0,0-.792-2.2v-4.72a.736.736,0,0,0-1.472,0v4.711a1.684,1.684,0,0,0,1.094,3.162l6.478,5.033a.737.737,0,1,0,.9-1.163Z"/>
  </g>
</svg>
